<?xml version="1.0" encoding="UTF-8"?>
<svg width="16px" height="16px" viewBox="0 0 22 45" version="1.1" xmlns="http://www.w3.org/2000/svg">
    <!-- Generator: Sketch 64 (93537) - https://sketch.com -->
    <title>Group-22</title>
    <desc>Created with Sketch.</desc>
    <g id="Page-1" stroke="none" stroke-width="1" fill="none" fill-rule="evenodd">
        <g id="Group-22" fill="#71CC97">
            <path d="M11.0639167,9.63447777e-15 C7.37594445,13.4199153 3.68797223,27.1029661 4.81723888e-15,40.5228813 C3.26630934,40.1272963 6.3222381,39.7334746 9.74678375,39.2072034 C8.89932612,44.5762711 9.74678375,39.5858985 8.89932612,45 L13.4919338,45 C12.6444762,39.2072034 13.4919338,45 12.6444762,39.2072034 C12.9079028,39.2072034 17.3861549,39.9966102 21.8644068,40.786017 C20.5472739,35.2601695 15.8055953,37.5867394 11.0639167,31.2714852 C13.6981826,32.5871631 18.1764345,33.6813559 20.5472739,33.9444915 C18.9667143,28.4186441 15.2787422,31.5346207 11.0639167,26.0087733 C13.1713294,27.0613156 16.8593016,27.8923729 18.9667143,28.4186441 C17.3861549,22.8927966 14.7518889,25.4825022 11.0639167,20.7460614 C12.9079028,21.5354682 15.8055953,22.3665253 17.3861549,22.8927966 C16.0690218,17.3669491 14.4884623,19.4303835 11.0639167,15.2202139 C12.6444762,16.0096207 14.4884623,16.5775423 15.8055953,17.1038136 C15.1910625,14.6483978 14.805907,13.7877829 14.248803,13.1674287 C13.6118615,12.4581728 12.750157,12.0629742 11.0639167,9.95750214 C12.117623,10.4837733 13.1713294,11.0516949 14.2250357,11.3148305 C12.9079028,6.57838983 13.9616091,8.11555299 11.0639167,4.69479028 C11.8541964,4.95792588 12.117623,5.26271187 12.6444762,5.52584747 L11.0639167,9.63447777e-15 Z"
                  id="Path">Tree</path>
        </g>
    </g>
</svg>
