<?xml version="1.0" encoding="UTF-8"?>
<svg width="111px" height="30px" viewBox="0 0 131 30" version="1.1" xmlns="http://www.w3.org/2000/svg">
    <!-- Generator: Sketch 64 (93537) - https://sketch.com -->
    <title>Group</title>
    <desc>Created with Sketch.</desc>
    <g id="Evergreen-Reconfigure-Patch" stroke="none" stroke-width="1" fill="none" fill-rule="evenodd">
        <g id="Patch-Details-Version-2---Reconfigure-Patch" transform="translate(-19.000000, -15.000000)">
            <g id="Group-8">
                <g id="Group" transform="translate(19.000000, 15.000000)">
                    <text id="Evergreen" font-family="AkzidenzGroteskStd-Bold, Akzidenz-Grotesk Std" font-size="18"
                          font-weight="bold" fill="#F9FBFA">
                        <tspan x="25" y="22">Evergreen</tspan>
                    </text>
                    <g id="Group-22" fill="#71CC97">
                        <path d="M7.37594446,6.42298518e-15 C4.9172963,8.94661017 2.45864815,18.0686441 3.21149259e-15,27.0152542 C2.17753956,26.7515309 4.2148254,26.4889831 6.49785583,26.1381356 C5.93288408,29.7175141 6.49785583,26.390599 5.93288408,30 L8.99462256,30 C8.42965081,26.1381356 8.99462256,30 8.42965081,26.1381356 C8.60526853,26.1381356 11.5907699,26.6644068 14.5762712,27.190678 C13.6981826,23.5067797 10.5370635,25.0578263 7.37594446,20.8476568 C9.13212171,21.7247754 12.117623,22.4542373 13.6981826,22.629661 C12.6444762,18.9457627 10.1858281,21.0230805 7.37594446,17.3391822 C8.78088626,18.0408771 11.2395344,18.5949153 12.6444762,18.9457627 C11.5907699,15.2618644 9.83459261,16.9883348 7.37594446,13.8307076 C8.60526853,14.3569788 10.5370635,14.9110169 11.5907699,15.2618644 C10.7126812,11.5779661 9.65897488,12.953589 7.37594446,10.1468093 C8.42965081,10.6730805 9.65897488,11.0516949 10.5370635,11.4025424 C10.127375,9.76559852 9.87060468,9.19185529 9.49920198,8.77828578 C9.07457436,8.30544853 8.50010469,8.0419828 7.37594446,6.63833476 C8.07841536,6.98918222 8.78088626,7.36779661 9.48335716,7.54322034 C8.60526853,4.38559322 9.30773943,5.41036866 7.37594446,3.12986019 C7.90279763,3.30528392 8.07841536,3.50847458 8.42965081,3.68389831 L7.37594446,6.42298518e-15 Z"
                              id="Path">Tree</path>
                    </g>
                </g>
            </g>
        </g>
    </g>
</svg>